<svg width="1759" height="2810" viewBox="0 0 1759 2810" fill="none" xmlns="http://www.w3.org/2000/svg">
<g clip-path="url(#clip0)">
<rect width="1759" height="2810" fill="url(#paint0_linear)"/>
<circle cx="1236.11" cy="324.412" r="6.01374" fill="white" fill-opacity="0.84"/>
<circle cx="1590.92" cy="240.22" r="4.5103" fill="white" fill-opacity="0.9"/>
<circle cx="1533.79" cy="558.948" r="4.5103" fill="white"/>
<circle cx="864.759" cy="743.87" r="6.01374" fill="white" fill-opacity="0.21"/>
<circle cx="622.706" cy="262.771" r="6.01374" fill="white" fill-opacity="0.6"/>
<circle cx="285.936" cy="837.083" r="6.01374" fill="white" fill-opacity="0.42"/>
<circle cx="366.37" cy="499.562" r="3.75859" fill="white"/>
<circle cx="1369.91" cy="894.214" r="6.01374" fill="white" fill-opacity="0.68"/>
<circle cx="153.634" cy="157.531" r="4.5103" fill="white"/>
<circle cx="918.882" cy="346.964" r="4.5103" fill="white"/>
<circle cx="726.443" cy="443.184" r="4.5103" fill="white"/>
<circle cx="864.759" cy="1333.22" r="4.5103" fill="white"/>
<circle cx="1518.75" cy="791.98" r="4.5103" fill="white"/>
<circle cx="213.771" cy="1031.03" r="4.5103" fill="white"/>
<circle cx="1270.69" cy="148.51" r="4.5103" fill="white"/>
<circle cx="914.372" cy="1136.27" r="4.5103" fill="white"/>
<circle cx="506.941" cy="1781.24" r="4.5103" fill="white"/>
<circle cx="99.5103" cy="1806.8" r="4.5103" fill="white"/>
<circle cx="909.862" cy="567.969" r="4.5103" fill="white"/>
<circle cx="1620.99" cy="495.804" r="6.01374" fill="white" fill-opacity="0.08"/>
<path fill-rule="evenodd" clip-rule="evenodd" d="M209.262 607.058L211.773 619.51H211.777V619.503L224.295 622.027L211.777 624.551V624.544H211.773L209.262 636.997L206.752 624.544H206.745V624.551L194.227 622.027L206.745 619.503V619.51H206.752L209.262 607.058Z" fill="white" fill-opacity="0.41"/>
<path fill-rule="evenodd" clip-rule="evenodd" d="M1584.91 1721.1L1587.42 1733.56H1587.42V1733.55L1599.94 1736.07L1587.42 1738.6V1738.59H1587.42L1584.91 1751.04L1582.39 1738.59H1582.39V1738.6L1569.87 1736.07L1582.39 1733.55V1733.56H1582.39L1584.91 1721.1Z" fill="white" fill-opacity="0.41"/>
<path fill-rule="evenodd" clip-rule="evenodd" d="M455.826 1546.7L458.336 1559.16H458.34V1559.15L470.859 1561.67L458.34 1564.2V1564.19H458.336L455.826 1576.64L453.315 1564.19H453.309V1564.2L440.79 1561.67L453.309 1559.15V1559.16H453.315L455.826 1546.7Z" fill="white" fill-opacity="0.41"/>
<path fill-rule="evenodd" clip-rule="evenodd" d="M1590.92 351.474L1593.43 363.926H1593.43V363.92L1605.95 366.443L1593.43 368.967V368.96H1593.43L1590.92 381.413L1588.41 368.96H1588.4V368.967L1575.88 366.443L1588.4 363.919V363.926H1588.41L1590.92 351.474Z" fill="white" fill-opacity="0.54"/>
<circle cx="389.412" cy="2386.89" r="6.01374" transform="rotate(-90 389.412 2386.89)" fill="white" fill-opacity="0.84"/>
<circle cx="305.22" cy="2032.08" r="4.5103" transform="rotate(-90 305.22 2032.08)" fill="white" fill-opacity="0.9"/>
<circle cx="623.948" cy="2089.21" r="4.5103" transform="rotate(-90 623.948 2089.21)" fill="white"/>
<circle cx="808.87" cy="2758.24" r="6.01374" transform="rotate(-90 808.87 2758.24)" fill="white" fill-opacity="0.21"/>
<circle cx="959.214" cy="2253.09" r="6.01374" transform="rotate(-90 959.214 2253.09)" fill="white" fill-opacity="0.68"/>
<circle cx="411.964" cy="2704.12" r="4.5103" transform="rotate(-90 411.964 2704.12)" fill="white"/>
<circle cx="1398.22" cy="2758.24" r="4.5103" transform="rotate(-90 1398.22 2758.24)" fill="white"/>
<circle cx="856.98" cy="2104.25" r="4.5103" transform="rotate(-90 856.98 2104.25)" fill="white"/>
<circle cx="213.51" cy="2352.31" r="4.5103" transform="rotate(-90 213.51 2352.31)" fill="white"/>
<circle cx="1201.27" cy="2708.63" r="4.5103" transform="rotate(-90 1201.27 2708.63)" fill="white"/>
<circle cx="632.969" cy="2713.14" r="4.5103" transform="rotate(-90 632.969 2713.14)" fill="white"/>
<circle cx="560.804" cy="2002.01" r="6.01374" transform="rotate(-90 560.804 2002.01)" fill="white" fill-opacity="0.08"/>
<path fill-rule="evenodd" clip-rule="evenodd" d="M416.474 2032.08L428.926 2029.57L428.926 2029.57L428.919 2029.57L431.443 2017.05L433.967 2029.57L433.96 2029.57L433.96 2029.57L446.413 2032.08L433.96 2034.59L433.96 2034.6L433.967 2034.6L431.443 2047.12L428.919 2034.6L428.926 2034.6L428.926 2034.59L416.474 2032.08Z" fill="white" fill-opacity="0.54"/>
</g>
<defs>
<linearGradient id="paint0_linear" x1="879.5" y1="0" x2="879.5" y2="2810" gradientUnits="userSpaceOnUse">
<stop stop-color="#040710"/>
<stop offset="0.480324" stop-color="#151B2E"/>
<stop offset="1" stop-color="#040710"/>
</linearGradient>
<clipPath id="clip0">
<rect width="1759" height="2810" fill="white"/>
</clipPath>
</defs>
</svg>
