<svg width="446" height="197" viewBox="0 0 446 197" fill="none" xmlns="http://www.w3.org/2000/svg">
<path d="M8.05093 98.5C8.10835 98.4478 8.16634 98.3952 8.2249 98.3421C11.1333 95.7051 15.444 91.9187 21.0076 87.3658C32.1395 78.2563 48.2615 66.0994 68.1801 53.9449C108.098 29.5866 162.835 5.5 223 5.5C283.165 5.5 337.902 29.5866 377.82 53.9449C397.739 66.0994 413.86 78.2563 424.992 87.3658C430.556 91.9187 434.867 95.7051 437.775 98.3421C437.834 98.3952 437.892 98.4478 437.949 98.5C437.892 98.5522 437.834 98.6048 437.775 98.6579C434.867 101.295 430.556 105.081 424.992 109.634C413.86 118.744 397.739 130.901 377.82 143.055C337.902 167.413 283.165 191.5 223 191.5C162.835 191.5 108.098 167.413 68.1801 143.055C48.2615 130.901 32.1395 118.744 21.0076 109.634C15.444 105.081 11.1333 101.295 8.2249 98.6579C8.16634 98.6048 8.10835 98.5522 8.05093 98.5Z" stroke="#3B40BB" stroke-width="11" stroke-linecap="round" stroke-linejoin="round"/>
<ellipse cx="222.5" cy="98" rx="66.5" ry="67" fill="white"/>
<ellipse cx="223" cy="98.5" rx="47" ry="46.5" fill="#3B40BB"/>
<path d="M182.513 106C182.175 103.817 182 101.578 182 99.2969C182 85.2081 188.694 72.7222 199 65" stroke="white" stroke-width="5" stroke-linecap="round"/>
</svg>
