<svg width="1586" height="1097" viewBox="0 0 1586 1097" fill="none" xmlns="http://www.w3.org/2000/svg">
<circle cx="1070.5" cy="589.523" r="170.496" fill="#172AD5"/>
<circle cx="1072.51" cy="591.529" r="220.642" fill="#2336E5" fill-opacity="0.03"/>
<circle cx="1072.51" cy="583.506" r="300.875" fill="#2336E5" fill-opacity="0.03"/>
<circle cx="1070.5" cy="581.5" r="515.5" fill="#2336E5" fill-opacity="0.03"/>
<mask id="mask0" mask-type="alpha" maskUnits="userSpaceOnUse" x="920" y="439" width="301" height="301">
<circle cx="1070.5" cy="589.523" r="150.438" fill="#394DFF"/>
</mask>
<g mask="url(#mask0)">
<circle cx="1070.5" cy="589.523" r="150.438" fill="#394DFF"/>
<rect x="843.841" y="511.296" width="188.549" height="44.1284" rx="6" fill="#3CF043"/>
<rect width="88.2568" height="24.07" rx="6" transform="matrix(1 0 0 -1 972.214 467.167)" fill="#3CF043"/>
<path d="M1000.3 577.506C1000.3 580.82 1002.98 583.506 1006.3 583.506H1090.58C1093.89 583.506 1096.58 580.82 1096.58 577.506V565.436C1096.58 562.122 1093.89 559.436 1090.58 559.436H1006.3C1002.98 559.436 1000.3 562.122 1000.3 565.436V571.471V577.506Z" fill="#3CF043"/>
<rect x="1120.65" y="583.506" width="188.549" height="28.0817" rx="6" fill="#3CF043"/>
<path d="M843.841 649.681C843.841 646.367 846.527 643.681 849.841 643.681H1032.39V677.798C1032.39 681.111 1029.7 683.798 1026.39 683.798H849.841C846.527 683.798 843.841 681.111 843.841 677.798V649.681Z" fill="#3CF043"/>
<rect x="875.934" y="615.599" width="188.549" height="40.1167" rx="6" fill="#3CF043"/>
<rect x="1104.6" y="467.167" width="188.549" height="40.1167" rx="6" fill="#3CF043"/>
<rect x="1160.76" y="487.226" width="188.549" height="40.1167" rx="6" fill="#3CF043"/>
<rect x="1088.55" y="679.786" width="188.549" height="36.1051" rx="6" fill="#3CF043"/>
<rect x="1148.73" y="651.704" width="188.549" height="36.1051" rx="6" fill="#3CF043"/>
<rect x="1144.72" y="563.448" width="188.549" height="48.1401" rx="6" fill="#3CF043"/>
<rect x="1184.83" y="579.494" width="188.549" height="48.1401" rx="6" fill="#3CF043"/>
<path d="M1108.61 599.553C1108.61 608.415 1115.8 615.599 1124.66 615.599H1196.87C1205.73 615.599 1212.91 608.415 1212.91 599.553V599.553C1212.91 590.69 1205.73 583.506 1196.87 583.506H1124.66C1115.8 583.506 1108.61 590.69 1108.61 599.553V599.553V599.553Z" fill="#F3F3F3"/>
<path d="M940.121 571.471C940.121 582.549 949.101 591.529 960.179 591.529H1052.45C1063.53 591.529 1072.51 582.549 1072.51 571.471V571.471C1072.51 560.393 1063.53 551.412 1052.45 551.412H960.179C949.101 551.412 940.121 560.393 940.121 571.471V571.471V571.471Z" fill="#F3F3F3"/>
<path d="M891.98 503.272C891.98 512.135 899.165 519.319 908.027 519.319H980.237C989.1 519.319 996.284 512.135 996.284 503.272V503.272C996.284 494.41 989.1 487.226 980.237 487.226H908.027C899.165 487.226 891.98 494.41 891.98 503.272V503.272V503.272Z" fill="#F3F3F3"/>
<path d="M952.156 663.739C952.156 674.817 961.136 683.798 972.214 683.798H1064.48C1075.56 683.798 1084.54 674.817 1084.54 663.739V663.739C1084.54 652.661 1075.56 643.681 1064.48 643.681H972.214C961.136 643.681 952.156 652.661 952.156 663.739V663.739V663.739Z" fill="#F3F3F3"/>
<path d="M1020.35 503.272C1020.35 514.35 1029.33 523.331 1040.41 523.331H1132.68C1143.76 523.331 1152.74 514.35 1152.74 503.272V503.272C1152.74 492.194 1143.76 483.214 1132.68 483.214H1040.41C1029.33 483.214 1020.35 492.194 1020.35 503.272V503.272V503.272Z" fill="#F3F3F3"/>
<rect x="952.156" y="472.806" width="172.502" height="340.992" transform="rotate(-45 952.156 472.806)" fill="black" fill-opacity="0.13"/>
</g>
<circle cx="182.644" cy="399.644" r="43.8764" transform="rotate(-25.9261 182.644 399.644)" fill="#EA8C49"/>
<circle cx="182.67" cy="400.67" r="88.0386" transform="rotate(-25.9261 182.67 400.67)" fill="#EA8C49" fill-opacity="0.02"/>
<circle cx="182.581" cy="399.581" r="136.604" transform="rotate(-25.9261 182.581 399.581)" fill="#EA8C49" fill-opacity="0.02"/>
<circle cx="182.719" cy="400.719" r="61.8891" transform="rotate(-25.9261 182.719 400.719)" fill="#EA8C49" fill-opacity="0.02"/>
<mask id="mask1" mask-type="alpha" maskUnits="userSpaceOnUse" x="130" y="348" width="106" height="106">
<circle cx="182.625" cy="400.788" r="37.2523" transform="rotate(140.204 182.625 400.788)" fill="#F09D60"/>
</mask>
<g mask="url(#mask1)">
<circle cx="182.625" cy="400.788" r="37.2523" transform="rotate(140.204 182.625 400.788)" fill="#F09D60"/>
<rect x="248.132" y="402.067" width="47.1548" height="84.8786" transform="rotate(140.204 248.132 402.067)" fill="#EA8C49"/>
<rect x="240.282" y="407.378" width="50.9271" height="13.2033" rx="4.5" transform="rotate(140.204 240.282 407.378)" fill="#EA8C49"/>
<rect x="228.572" y="388.902" width="50.9271" height="8.48786" rx="4.24393" transform="rotate(140.204 228.572 388.902)" fill="#EA8C49"/>
<rect x="217.707" y="375.859" width="50.9271" height="8.48786" rx="4.24393" transform="rotate(140.204 217.707 375.859)" fill="#EA8C49"/>
<rect x="206.117" y="363.419" width="50.9271" height="8.48786" rx="4.24393" transform="rotate(140.204 206.117 363.419)" fill="#EA8C49"/>
<rect x="195.251" y="350.377" width="50.9271" height="8.48786" rx="4.24393" transform="rotate(140.204 195.251 350.377)" fill="#EA8C49"/>
<rect x="178.946" y="375.007" width="50.9271" height="8.48786" rx="4.24393" transform="rotate(140.204 178.946 375.007)" fill="#F09D60"/>
<rect x="199.956" y="379.599" width="50.9271" height="8.48786" rx="4.24393" transform="rotate(140.204 199.956 379.599)" fill="#F09D60"/>
<rect x="197.054" y="404.111" width="50.9271" height="8.48786" rx="4.24393" transform="rotate(140.204 197.054 404.111)" fill="#F09D60"/>
<rect x="217.339" y="409.307" width="50.9271" height="8.48786" rx="4.24393" transform="rotate(140.204 217.339 409.307)" fill="#F09D60"/>
</g>
</svg>
