<?xml version="1.0" standalone="no"?>
<!DOCTYPE svg PUBLIC "-//W3C//DTD SVG 20010904//EN"
 "http://www.w3.org/TR/2001/REC-SVG-20010904/DTD/svg10.dtd">
<svg version="1.0" xmlns="http://www.w3.org/2000/svg"
 width="2000.000000pt" height="2000.000000pt" viewBox="0 0 2000.000000 2000.000000"
 preserveAspectRatio="xMidYMid meet">
<metadata>
Created by potrace 1.15, written by Peter Selinger 2001-2017
</metadata>
<g transform="translate(0.000000,2000.000000) scale(0.100000,-0.100000)"
fill="#000000" stroke="none">
<path d="M9545 18844 c-608 -32 -1362 -153 -1921 -309 -782 -218 -1456 -505
-2159 -918 -647 -380 -1348 -939 -1851 -1475 -731 -777 -1257 -1576 -1682
-2552 -408 -936 -656 -2008 -732 -3155 -6 -93 -16 -230 -21 -304 -8 -94 -8
-176 0 -270 6 -75 15 -210 21 -301 25 -376 87 -893 146 -1205 195 -1039 483
-1845 999 -2789 219 -402 338 -589 585 -921 857 -1150 1993 -2082 3256 -2671
377 -176 542 -243 989 -401 480 -170 785 -251 1255 -332 583 -101 662 -106
1575 -106 911 0 1005 6 1600 110 314 55 537 109 745 180 85 29 301 102 480
163 179 61 399 140 489 177 726 294 1387 666 1997 1123 502 376 885 737 1360
1282 793 909 1422 2069 1763 3255 196 683 308 1337 361 2120 6 88 15 225 21
304 8 104 8 186 0 300 -7 86 -16 221 -22 301 -35 513 -50 633 -205 1600 -66
415 -271 1056 -510 1600 -79 179 -286 601 -364 740 -256 458 -530 865 -726
1080 -42 47 -124 141 -181 210 -576 689 -1165 1224 -1862 1694 -195 131 -325
207 -728 425 -956 517 -2021 854 -3113 986 -405 49 -536 56 -1020 59 -261 2
-506 2 -545 0z m910 -1304 c353 -23 565 -51 565 -76 0 -15 -19 -21 -245 -78
-428 -106 -1065 -311 -1452 -465 -654 -261 -1044 -445 -1615 -763 -1017 -565
-1885 -1227 -2599 -1984 -475 -502 -736 -828 -1096 -1369 -434 -651 -806
-1415 -1107 -2270 -98 -278 -260 -854 -342 -1213 -37 -162 -69 -262 -85 -262
-5 0 -14 12 -19 26 -6 16 -10 370 -10 939 0 1014 -3 961 70 1350 157 839 477
1675 928 2425 541 899 1172 1595 2043 2252 1118 842 2549 1380 3929 1477 85 6
173 13 195 15 103 8 698 5 840 -4z m3431 -1130 c39 -5 96 -19 128 -30 101 -38
404 -249 718 -498 432 -344 775 -680 1162 -1141 246 -293 304 -367 425 -546
392 -579 654 -1093 887 -1739 54 -150 65 -205 41 -224 -7 -6 -120 -46 -252
-90 -662 -221 -1165 -457 -1805 -850 -549 -336 -1164 -826 -1655 -1317 -473
-473 -936 -1059 -1229 -1554 -557 -941 -871 -1849 -1020 -2951 -29 -212 -49
-429 -71 -785 -9 -137 -18 -261 -21 -273 -3 -13 2 -114 10 -225 8 -111 22
-301 31 -422 23 -314 63 -635 115 -910 12 -60 28 -147 37 -193 22 -117 27
-113 -217 -151 -391 -60 -563 -71 -1160 -71 -476 0 -723 10 -960 41 -489 62
-887 154 -1325 304 -472 162 -707 259 -1095 451 -279 138 -500 266 -790 459
-644 428 -1210 931 -1677 1490 -247 296 -591 782 -613 866 -7 26 -10 348 -7
977 l3 937 32 205 c84 546 184 977 352 1525 204 664 536 1410 873 1960 219
358 420 645 667 954 217 271 375 446 655 727 651 651 1409 1216 2270 1689
1059 582 2100 974 3175 1194 450 92 1052 166 1535 190 229 11 697 12 781 1z
m3665 -5517 c6 -17 9 -344 6 -947 -3 -898 -3 -924 -25 -1061 -159 -988 -505
-1928 -1015 -2755 -265 -429 -489 -731 -842 -1135 -509 -583 -1210 -1153
-1913 -1556 -399 -228 -1035 -519 -1137 -519 -46 0 -58 24 -89 181 -66 328
-66 322 -66 1256 0 938 -1 919 65 1269 144 759 456 1507 929 2224 103 156 350
485 488 650 376 448 914 944 1453 1339 556 408 1167 741 1775 969 348 130 353
131 371 85z"/>
</g>
</svg>
